<svg viewBox="0 0 32 32" xmlns="http://www.w3.org/2000/svg">
  <defs>
    <linearGradient id="fg" x1="16" y1="2" x2="16" y2="30" gradientUnits="userSpaceOnUse">
      <stop offset="0%" stop-color="#9CCF6A"/>
      <stop offset="100%" stop-color="#4BA89A"/>
    </linearGradient>
  </defs>
  <rect width="32" height="32" rx="6" fill="#121B1A"/>
  <svg x="3" y="4" width="26" height="24" viewBox="0 0 861 746">
    <g transform="translate(0,746) scale(0.1,-0.1)" fill="url(#fg)" stroke="none">
      <path d="M4218 6158 c-213 -254 -480 -697 -571 -949 l-24 -66 134 -133 c205 -203 342 -387 458 -614 l58 -113 56 111 c115 227 283 449 485 644 l107 103 -12 37 c-27 81 -121 270 -243 487 -95 167 -369 545 -396 545 -4 0 -27 -24 -52 -52z"/>
      <path d="M2141 5568 c-10 -34 -30 -169 -53 -363 -8 -66 -13 -220 -12 -385 0 -272 10 -401 49 -626 120 -708 470 -1255 980 -1537 125 -69 407 -178 422 -164 3 3 -54 66 -127 139 -216 216 -370 417 -440 574 -17 38 -45 113 -62 169 -30 95 -32 109 -32 270 -1 156 1 177 25 255 109 352 407 580 761 584 60 0 108 4 108 7 0 26 -192 249 -292 340 -306 275 -615 469 -1053 659 -66 29 -145 61 -175 72 -30 11 -59 24 -64 29 -17 15 -24 10 -35 -23z"/>
      <path d="M6335 5580 c-22 -11 -101 -45 -175 -76 -319 -133 -611 -299 -875 -499 -110 -83 -343 -303 -408 -385 -65 -82 -87 -113 -87 -124 0 -7 35 -12 102 -13 456 -11 790 -369 789 -844 -1 -336 -145 -601 -560 -1028 -61 -63 -109 -116 -107 -118 14 -15 242 71 382 143 226 116 447 303 591 499 29 39 60 81 71 95 29 40 136 238 175 325 19 44 56 141 80 215 115 345 158 635 158 1053 -1 249 -21 499 -56 691 -8 43 -15 80 -15 82 0 9 -27 2 -65 -16z"/>
      <path d="M3556 4139 c-70 -17 -174 -79 -227 -137 -94 -102 -129 -203 -130 -364 0 -89 4 -120 26 -185 69 -205 135 -297 415 -582 73 -74 416 -400 528 -500 l102 -93 103 93 c399 365 685 650 788 787 70 91 130 205 166 312 13 41 18 85 18 170 0 101 -3 124 -28 192 -74 201 -239 318 -448 318 -144 0 -234 -33 -347 -128 -54 -45 -154 -181 -213 -289 -18 -35 -36 -63 -39 -63 -3 0 -24 35 -47 78 -155 287 -313 404 -542 401 -47 -1 -103 -5 -125 -10z"/>
      <path d="M6955 3949 c-82 -3 -171 -10 -197 -14 -53 -8 -50 -3 -87 -147 -37 -145 -102 -309 -197 -495 -29 -60 -59 -117 -66 -128 -7 -11 -33 -51 -57 -90 -314 -499 -805 -822 -1441 -949 -69 -14 -174 -28 -235 -32 -60 -4 -121 -10 -134 -14 -23 -6 -21 -8 30 -52 172 -145 440 -275 668 -323 175 -36 431 -38 611 -4 206 39 468 145 656 265 381 244 803 730 1044 1204 23 47 46 90 50 95 20 26 160 348 202 465 37 102 47 148 34 158 -6 5 -56 15 -111 21 -55 7 -138 17 -185 23 -127 15 -415 24 -585 17z"/>
      <path d="M1055 3935 c-66 -7 -171 -20 -233 -29 -62 -9 -115 -16 -117 -16 -16 0 20 -120 87 -290 158 -402 393 -795 667 -1115 373 -437 785 -696 1246 -785 91 -18 368 -24 476 -11 277 32 580 163 787 338 28 25 50 49 46 54 -3 5 -33 9 -67 9 -85 0 -207 16 -362 46 -404 81 -798 283 -1079 553 -300 289 -513 671 -654 1171 -18 63 -19 65 -58 73 -76 14 -612 17 -739 2z"/>
    </g>
  </svg>
</svg>
