<svg viewBox="0 0 200 180" fill="none" xmlns="http://www.w3.org/2000/svg">
  <defs>
    <linearGradient id="petal-grad" x1="100" y1="10" x2="100" y2="150" gradientUnits="userSpaceOnUse">
      <stop offset="0%" stop-color="#9CCF6A"/>
      <stop offset="100%" stop-color="#4BA89A"/>
    </linearGradient>
    <linearGradient id="petal-grad-dark" x1="100" y1="10" x2="100" y2="150" gradientUnits="userSpaceOnUse">
      <stop offset="0%" stop-color="#7ab84e"/>
      <stop offset="100%" stop-color="#3d8a7e"/>
    </linearGradient>
  </defs>

  <!-- Outer left petal -->
  <path d="M100 95 C85 80 45 55 28 65 C12 75 20 100 35 115 C48 128 75 130 100 120"
        fill="url(#petal-grad)" opacity="0.7" stroke="#2a5045" stroke-width="2"/>

  <!-- Outer right petal -->
  <path d="M100 95 C115 80 155 55 172 65 C188 75 180 100 165 115 C152 128 125 130 100 120"
        fill="url(#petal-grad)" opacity="0.7" stroke="#2a5045" stroke-width="2"/>

  <!-- Middle left petal -->
  <path d="M100 88 C88 72 58 42 48 48 C35 56 42 82 55 100 C65 114 82 120 100 115"
        fill="url(#petal-grad)" opacity="0.8" stroke="#2a5045" stroke-width="2"/>

  <!-- Middle right petal -->
  <path d="M100 88 C112 72 142 42 152 48 C165 56 158 82 145 100 C135 114 118 120 100 115"
        fill="url(#petal-grad)" opacity="0.8" stroke="#2a5045" stroke-width="2"/>

  <!-- Inner left petal -->
  <path d="M100 82 C90 65 72 32 68 28 C60 22 54 32 56 48 C58 65 72 88 88 102 C92 106 96 108 100 108"
        fill="url(#petal-grad)" opacity="0.9" stroke="#2a5045" stroke-width="2"/>

  <!-- Inner right petal -->
  <path d="M100 82 C110 65 128 32 132 28 C140 22 146 32 144 48 C142 65 128 88 112 102 C108 106 104 108 100 108"
        fill="url(#petal-grad)" opacity="0.9" stroke="#2a5045" stroke-width="2"/>

  <!-- Center petal (top) -->
  <path d="M100 80 C96 60 92 28 94 16 C96 8 100 5 100 5 C100 5 104 8 106 16 C108 28 104 60 100 80"
        fill="url(#petal-grad)" stroke="#2a5045" stroke-width="2"/>

  <!-- Heart center -->
  <path d="M100 90 C94 80 84 80 84 88 C84 96 100 110 100 110 C100 110 116 96 116 88 C116 80 106 80 100 90Z"
        fill="#1a2e25" stroke="url(#petal-grad)" stroke-width="2.5"/>
</svg>
